<?xml version="1.0" standalone="no"?><!DOCTYPE svg PUBLIC "-//W3C//DTD SVG 1.1//EN" "http://www.w3.org/Graphics/SVG/1.1/DTD/svg11.dtd"><svg t="1741833533106" class="icon" viewBox="0 0 1024 1024" version="1.1" xmlns="http://www.w3.org/2000/svg" p-id="15243" xmlns:xlink="http://www.w3.org/1999/xlink" width="200" height="200"><path d="M510.933333 127.658667c-30.506667 0.341333-60.032 6.485333-82.688 17.322666-39.253333 18.773333-257.322667 128-257.322666 128l290.645333 145.322667c26.581333 13.226667 74.794667 13.312 101.376 0l293.290667-143.957333s-196.010667-99.413333-257.322667-129.365334c-25.941333-12.672-57.514667-17.664-87.978667-17.322666z m-382.72 213.333333v296.021333c0.042667 51.584 34.986667 107.605333 81.365334 130.645334l260.010666 128v-388.010667a185.429333 185.429333 0 0 1-46.677333-14.677333L152.234667 358.314667c-15.786667-7.850667-23.978667-17.322667-23.978667-17.322667z m768 0s-8.149333 9.472-23.936 17.322667L601.6 492.970667a185.557333 185.557333 0 0 1-46.677333 14.677333v388.010667l260.010666-128c46.336-23.04 81.322667-79.061333 81.322667-130.645334V340.992z" fill="#13227a" p-id="15244"></path></svg>